<svg width="117" height="123" viewBox="0 0 117 123" fill="none" xmlns="http://www.w3.org/2000/svg">
<path d="M27.0088 30.426V87.4618C27.0088 87.8875 27.3539 88.2326 27.7795 88.2326H46.4061C46.8318 88.2326 47.1769 87.8875 47.1769 87.4618V69.4775C47.1769 69.0519 47.5219 68.7068 47.9476 68.7068H68.2441C68.6698 68.7068 69.0149 69.0519 69.0149 69.4775V87.4618C69.0149 87.8875 69.36 88.2326 69.7856 88.2326H88.7976C89.2233 88.2326 89.5683 87.8875 89.5683 87.4618V8.33105" stroke="white" strokeWidth="5.13836"/>
<path d="M46.5342 14.2402V46.6119C46.5342 47.0376 46.8793 47.3827 47.3049 47.3827H67.0876C67.5133 47.3827 67.8584 47.0376 67.8584 46.6119V36.7206" stroke="white" strokeWidth="5.13836"/>
<circle cx="26.7505" cy="27.8569" r="3.33994" stroke="white" strokeWidth="2.56918"/>
<circle cx="46.5337" cy="11.9282" r="3.33994" stroke="white" strokeWidth="2.56918"/>
<circle cx="67.8579" cy="34.023" r="3.33994" stroke="white" strokeWidth="2.56918"/>
<circle cx="89.6958" cy="5.50538" r="3.33994" stroke="white" strokeWidth="2.56918"/>
<path d="M0.769626 107.808V97.8265H2.61927V101.945H7.54003V97.8265H9.38968V107.808H7.54003V103.55H2.61927V107.808H0.769626ZM14.9065 97.8265H16.8958L19.7016 102.636L22.34 97.8265H24.2594L20.5881 104.318V107.808H18.7384V104.318L14.9065 97.8265ZM29.1411 107.808V97.8265H33.6082C35.6463 97.8265 36.6653 98.7641 36.6653 100.639C36.6653 102.673 35.2717 103.904 32.4844 104.332L32.2192 102.684C33.8944 102.382 34.7319 101.719 34.7319 100.695C34.7319 99.8669 34.3178 99.4528 33.4895 99.4528H30.9908V107.808H29.1411ZM49.0154 97.8265V99.4179H44.0179V101.931H48.7781V103.585H43.9969V106.202H49.1131V107.808H42.1822V97.8265H49.0154ZM55.1116 107.794V97.8265H59.6484C61.6865 97.8265 62.7056 98.7176 62.7056 100.5C62.7056 101.705 61.9122 102.703 60.3255 103.494L63.4873 107.808H61.1561L58.1199 103.459V102.615C59.8881 102.312 60.7722 101.626 60.7722 100.556C60.7722 99.8204 60.358 99.4528 59.5298 99.4528H56.9961V107.794H55.1116ZM70.5048 97.8265V106.202H74.4693V107.808H68.6552V97.8265H70.5048ZM87.3429 97.8265V99.4179H82.3453V101.931H87.1056V103.585H82.3244V106.202H87.4406V107.808H80.5097V97.8265H87.3429ZM100.272 97.8265V99.4179H95.2747V101.931H100.035V103.585H95.2538V106.202H100.37V107.808H93.439V97.8265H100.272ZM106.368 107.808V97.8265H108.218L113.488 105.099V97.8265H115.268V107.808H113.418L108.148 100.381V107.808H106.368Z" fill="white"/>
<path d="M0.197283 120.238V116.246H1.90035C2.65976 116.246 3.03946 116.556 3.03946 117.176C3.03946 117.63 2.79191 117.954 2.29681 118.15C2.82541 118.249 3.08971 118.551 3.08971 119.057C3.08971 119.845 2.67372 120.238 1.84172 120.238H0.197283ZM1.81101 119.819C2.2875 119.819 2.52574 119.578 2.52574 119.094C2.52574 118.623 2.20653 118.387 1.56812 118.387H1.34476V118.049C2.10789 117.947 2.48945 117.672 2.48945 117.223C2.48945 116.851 2.27726 116.665 1.85289 116.665H0.713788V119.819H1.81101ZM4.6552 120.238V117.307H5.00419L5.09632 117.681C5.35318 117.431 5.66215 117.307 6.02324 117.307V117.737C5.67332 117.737 5.38947 117.86 5.1717 118.108V120.238H4.6552ZM7.20344 119.353C7.20344 118.752 7.59989 118.451 8.3928 118.451C8.64779 118.451 8.90279 118.47 9.15778 118.507V118.231C9.15778 117.894 8.89441 117.726 8.36767 117.726C8.06614 117.726 7.75717 117.772 7.44075 117.865V117.446C7.75717 117.353 8.06614 117.307 8.36767 117.307C9.23875 117.307 9.67429 117.61 9.67429 118.217V120.238H9.38393L9.20524 119.948C8.91302 120.141 8.59475 120.238 8.25041 120.238C7.55243 120.238 7.20344 119.943 7.20344 119.353ZM8.3928 118.87C7.94423 118.87 7.71994 119.028 7.71994 119.345C7.71994 119.661 7.89677 119.819 8.25041 119.819C8.60777 119.819 8.91023 119.725 9.15778 119.535V118.926C8.90279 118.889 8.64779 118.87 8.3928 118.87ZM11.3152 120.238V117.307H11.6641L11.7563 117.681C12.0559 117.431 12.3854 117.307 12.7446 117.307C13.4761 117.307 13.8418 117.671 13.8418 118.398V120.238H13.3253V118.39C13.3253 117.954 13.1085 117.737 12.6748 117.737C12.3789 117.737 12.0978 117.86 11.8317 118.108V120.238H11.3152ZM17.451 117.904C17.2425 117.804 17.0043 117.753 16.7363 117.753C16.1463 117.753 15.8512 118.067 15.8512 118.694C15.8512 119.437 16.1463 119.808 16.7363 119.808C17.0043 119.808 17.2425 119.772 17.451 119.699V117.904ZM17.9675 120.062C17.612 120.18 17.1737 120.238 16.6525 120.238C15.7796 120.238 15.3431 119.73 15.3431 118.714C15.3431 117.776 15.8066 117.307 16.7335 117.307C16.9866 117.307 17.2258 117.353 17.451 117.446V116.246H17.9675V120.062ZM24.8732 120.099C24.5288 120.21 24.1566 120.266 23.7564 120.266C22.3604 120.266 21.6625 119.573 21.6625 118.186C21.6625 116.874 22.3604 116.218 23.7564 116.218C24.1566 116.218 24.5288 116.274 24.8732 116.385V116.832C24.5288 116.702 24.1752 116.637 23.8122 116.637C22.7234 116.637 22.179 117.153 22.179 118.186C22.179 119.294 22.7234 119.847 23.8122 119.847C24.1752 119.847 24.5288 119.782 24.8732 119.652V120.099ZM27.0166 116.246V120.238H26.5001V116.246H27.0166ZM28.5458 119.353C28.5458 118.752 28.9422 118.451 29.7351 118.451C29.9901 118.451 30.2451 118.47 30.5001 118.507V118.231C30.5001 117.894 30.2367 117.726 29.71 117.726C29.4085 117.726 29.0995 117.772 28.7831 117.865V117.446C29.0995 117.353 29.4085 117.307 29.71 117.307C30.5811 117.307 31.0166 117.61 31.0166 118.217V120.238H30.7263L30.5476 119.948C30.2554 120.141 29.9371 120.238 29.5927 120.238C28.8948 120.238 28.5458 119.943 28.5458 119.353ZM29.7351 118.87C29.2866 118.87 29.0623 119.028 29.0623 119.345C29.0623 119.661 29.2391 119.819 29.5927 119.819C29.9501 119.819 30.2526 119.725 30.5001 119.535V118.926C30.2451 118.889 29.9901 118.87 29.7351 118.87ZM32.6575 120.238V117.307H33.0065L33.0986 117.681C33.3555 117.431 33.6644 117.307 34.0255 117.307V117.737C33.6756 117.737 33.3918 117.86 33.174 118.108V120.238H32.6575ZM35.9177 117.307V120.238H35.4012V117.307H35.9177ZM35.9177 116.246V116.734H35.4012V116.246H35.9177ZM37.6144 116.832H37.9382L38.0499 117.307H38.8428V117.726H38.1309V119.409C38.1309 119.683 38.2491 119.819 38.4855 119.819H38.8428V120.238H38.3514C37.8601 120.238 37.6144 119.975 37.6144 119.448V116.832ZM39.9532 117.307H40.5144L41.3436 119.596L42.2007 117.307H42.7479L41.5307 120.325C41.3147 120.857 40.9909 121.189 40.5591 121.322L40.3608 120.956C40.6884 120.812 40.9267 120.579 41.0756 120.255L39.9532 117.307ZM48.9807 116.246V116.665H47.7244V120.238H47.2079V116.665H45.9515V116.246H48.9807ZM50.3424 120.238V116.246H50.8589V117.625C51.1083 117.413 51.4126 117.307 51.7719 117.307C52.5033 117.307 52.8691 117.671 52.8691 118.398V120.238H52.3526V118.39C52.3526 117.954 52.1357 117.737 51.7021 117.737C51.4061 117.737 51.1251 117.86 50.8589 118.108V120.238H50.3424ZM54.51 120.238V117.307H54.8589L54.9511 117.681C55.2079 117.431 55.5169 117.307 55.878 117.307V117.737C55.5281 117.737 55.2442 117.86 55.0265 118.108V120.238H54.51ZM57.5747 118.761C57.5747 119.467 57.8679 119.819 58.4542 119.819C59.0405 119.819 59.3336 119.467 59.3336 118.761C59.3336 118.071 59.0405 117.726 58.4542 117.726C57.8679 117.726 57.5747 118.071 57.5747 118.761ZM57.0582 118.773C57.0582 117.795 57.5235 117.307 58.4542 117.307C59.3848 117.307 59.8501 117.795 59.8501 118.773C59.8501 119.748 59.3848 120.235 58.4542 120.235C57.5272 120.235 57.0619 119.748 57.0582 118.773ZM63.8753 117.307V120.238H63.5207L63.4314 119.864C63.0759 120.114 62.7185 120.238 62.3593 120.238C61.6855 120.238 61.3486 119.874 61.3486 119.147V117.307H61.8651V119.155C61.8651 119.591 62.081 119.808 62.5128 119.808C62.8088 119.808 63.0908 119.685 63.3588 119.437V117.307H63.8753ZM67.4761 117.804C67.2993 117.759 67.0806 117.737 66.82 117.737C66.1964 117.737 65.8847 118.075 65.8847 118.75C65.8847 119.444 66.1797 119.792 66.7697 119.792C67.0377 119.792 67.2732 119.741 67.4761 119.641V117.804ZM67.9926 120.238C67.9926 120.946 67.5431 121.299 66.6441 121.299C66.283 121.299 65.9629 121.253 65.6837 121.16V120.741C65.9684 120.834 66.2904 120.88 66.6497 120.88C67.2006 120.88 67.4761 120.666 67.4761 120.238V120.099C67.2564 120.192 67.0201 120.238 66.7669 120.238C65.84 120.238 65.3766 119.744 65.3766 118.756C65.3766 117.79 65.8651 117.307 66.8423 117.307C67.2388 117.307 67.6222 117.347 67.9926 117.427V120.238ZM69.6334 120.238V116.246H70.15V117.625C70.3994 117.413 70.7037 117.307 71.0629 117.307C71.7944 117.307 72.1601 117.671 72.1601 118.398V120.238H71.6436V118.39C71.6436 117.954 71.4268 117.737 70.9931 117.737C70.6972 117.737 70.4161 117.86 70.15 118.108V120.238H69.6334ZM76.1845 120.238H75.6485L77.3432 116.246H77.9155L79.6186 120.238H79.0462L78.5297 118.982H77.2092L77.3515 118.563H78.3566L77.6112 116.754L76.1845 120.238ZM81.5638 116.246V120.238H81.0473V116.246H81.5638ZM85.5965 120.238V116.246H87.2996C88.059 116.246 88.4387 116.556 88.4387 117.176C88.4387 117.63 88.1912 117.954 87.6961 118.15C88.2247 118.249 88.489 118.551 88.489 119.057C88.489 119.845 88.073 120.238 87.241 120.238H85.5965ZM87.2103 119.819C87.6867 119.819 87.925 119.578 87.925 119.094C87.925 118.623 87.6058 118.387 86.9674 118.387H86.744V118.049C87.5071 117.947 87.8887 117.672 87.8887 117.223C87.8887 116.851 87.6765 116.665 87.2521 116.665H86.113V119.819H87.2103ZM90.0544 120.238V117.307H90.4034L90.4956 117.681C90.7524 117.431 91.0614 117.307 91.4225 117.307V117.737C91.0726 117.737 90.7887 117.86 90.571 118.108V120.238H90.0544ZM93.3146 117.307V120.238H92.7981V117.307H93.3146ZM93.3146 116.246V116.734H92.7981V116.246H93.3146ZM95.5558 116.246V120.238H95.0393V116.246H95.5558ZM97.769 116.246V120.238H97.2525V116.246H97.769ZM100.01 117.307V120.238H99.4936V117.307H100.01ZM100.01 116.246V116.734H99.4936V116.246H100.01ZM101.567 119.353C101.567 118.752 101.964 118.451 102.757 118.451C103.012 118.451 103.267 118.47 103.522 118.507V118.231C103.522 117.894 103.258 117.726 102.731 117.726C102.43 117.726 102.121 117.772 101.805 117.865V117.446C102.121 117.353 102.43 117.307 102.731 117.307C103.603 117.307 104.038 117.61 104.038 118.217V120.238H103.748L103.569 119.948C103.277 120.141 102.959 120.238 102.614 120.238C101.916 120.238 101.567 119.943 101.567 119.353ZM102.757 118.87C102.308 118.87 102.084 119.028 102.084 119.345C102.084 119.661 102.261 119.819 102.614 119.819C102.972 119.819 103.274 119.725 103.522 119.535V118.926C103.267 118.889 103.012 118.87 102.757 118.87ZM105.679 120.238V117.307H106.028L106.12 117.681C106.42 117.431 106.749 117.307 107.108 117.307C107.84 117.307 108.206 117.671 108.206 118.398V120.238H107.689V118.39C107.689 117.954 107.472 117.737 107.039 117.737C106.743 117.737 106.462 117.86 106.195 118.108V120.238H105.679ZM112.052 120.155C111.81 120.21 111.55 120.238 111.27 120.238C110.228 120.238 109.707 119.731 109.707 118.717C109.707 117.777 110.228 117.307 111.27 117.307C111.55 117.307 111.81 117.335 112.052 117.391V117.809C111.81 117.753 111.54 117.726 111.242 117.726C110.563 117.726 110.223 118.056 110.223 118.717C110.223 119.452 110.563 119.819 111.242 119.819C111.54 119.819 111.81 119.792 112.052 119.736V120.155ZM114.72 117.307C115.554 117.307 115.971 117.719 115.971 118.544C115.971 118.661 115.963 118.786 115.946 118.92H113.888C113.888 119.52 114.238 119.819 114.938 119.819C115.271 119.819 115.567 119.782 115.826 119.708V120.127C115.567 120.201 115.253 120.238 114.882 120.238C113.875 120.238 113.372 119.739 113.372 118.739C113.372 117.784 113.821 117.307 114.72 117.307ZM113.888 118.491H115.474C115.463 117.977 115.212 117.72 114.72 117.72C114.199 117.72 113.922 117.977 113.888 118.491Z" fill="white"/>
</svg>
