<svg width="16" height="17" viewBox="0 0 16 17" fill="none" xmlns="http://www.w3.org/2000/svg">
<path d="M7.99841 5.99902C7.24825 5.99902 6.52881 6.29653 5.99837 6.82609C5.46792 7.35565 5.16992 8.07389 5.16992 8.8228C5.16992 9.57172 5.46792 10.29 5.99837 10.8195C6.52881 11.3491 7.24825 11.6466 7.99841 11.6466C8.74857 11.6466 9.46801 11.3491 9.99846 10.8195C10.5289 10.29 10.8269 9.57172 10.8269 8.8228C10.8269 8.07389 10.5289 7.35565 9.99846 6.82609C9.46801 6.29653 8.74857 5.99902 7.99841 5.99902Z" fill="#084CAF"/>
<path fill-rule="evenodd" clip-rule="evenodd" d="M3.44637 1.07432C6.47157 0.73955 9.52456 0.73955 12.5498 1.07432C14.2025 1.25852 15.5349 2.55746 15.729 4.21349C16.0877 7.27591 16.0877 10.3696 15.729 13.4321C15.5349 15.0881 14.2025 16.387 12.5506 16.5721C9.52515 16.907 6.47186 16.907 3.44637 16.5721C1.79366 16.387 0.461227 15.0881 0.267149 13.4329C-0.0916537 10.3702 -0.0916537 7.2762 0.267149 4.21349C0.461227 2.55746 1.79366 1.25852 3.44637 1.07432ZM12.3496 3.60964C12.1188 3.60964 11.8974 3.70118 11.7342 3.86412C11.571 4.02706 11.4793 4.24806 11.4793 4.4785C11.4793 4.70893 11.571 4.92993 11.7342 5.09287C11.8974 5.25581 12.1188 5.34735 12.3496 5.34735C12.5804 5.34735 12.8018 5.25581 12.965 5.09287C13.1282 4.92993 13.2199 4.70893 13.2199 4.4785C13.2199 4.24806 13.1282 4.02706 12.965 3.86412C12.8018 3.70118 12.5804 3.60964 12.3496 3.60964ZM3.86412 8.82277C3.86412 7.72821 4.29966 6.67847 5.07492 5.9045C5.85019 5.13052 6.90167 4.69571 7.99807 4.69571C9.09446 4.69571 10.1459 5.13052 10.9212 5.9045C11.6965 6.67847 12.132 7.72821 12.132 8.82277C12.132 9.91734 11.6965 10.9671 10.9212 11.741C10.1459 12.515 9.09446 12.9498 7.99807 12.9498C6.90167 12.9498 5.85019 12.515 5.07492 11.741C4.29966 10.9671 3.86412 9.91734 3.86412 8.82277Z" fill="#084CAF"/>
</svg>
