<svg width="795" height="1207" viewBox="0 0 795 1207" fill="none" xmlns="http://www.w3.org/2000/svg">
<path d="M1149.02 217.405C1138.66 203.86 1113.23 562.826 756.192 604.252C490.248 635.109 424.42 816.095 415.372 939.885" stroke="#084CAF"/>
<path d="M1114.54 222.789C1104.18 209.244 1078.75 568.21 721.711 609.637C455.766 640.494 389.938 821.479 380.891 945.27" stroke="#084CAF"/>
<path d="M1080.05 228.173C1069.7 214.629 1044.27 573.595 687.228 615.021C421.284 645.878 355.456 826.863 346.408 950.654" stroke="#084CAF"/>
<path d="M1045.57 233.558C1035.22 220.013 1009.79 578.979 652.748 620.405C386.803 651.262 320.975 832.247 311.928 956.038" stroke="#084CAF"/>
<path d="M1011.09 238.942C1000.74 225.397 975.305 584.363 618.267 625.789C352.323 656.647 286.495 837.632 277.448 961.422" stroke="#084CAF"/>
<path d="M976.611 244.326C966.257 230.781 940.823 589.747 583.785 631.174C317.84 662.031 252.012 843.016 242.965 966.806" stroke="#084CAF"/>
<path d="M942.131 249.71C931.776 236.165 906.342 595.131 549.305 636.558C283.36 667.415 217.532 848.4 208.485 972.19" stroke="#084CAF"/>
<path d="M907.651 255.094C897.296 241.55 871.862 600.516 514.824 641.942C248.879 672.799 183.051 853.784 174.004 977.575" stroke="#084CAF"/>
<path d="M873.168 260.479C862.813 246.934 837.379 605.9 480.342 647.326C214.397 678.183 148.569 859.169 139.522 982.959" stroke="#084CAF"/>
<path d="M838.688 265.863C828.333 252.318 802.899 611.284 445.861 652.711C179.917 683.568 114.089 864.553 105.041 988.343" stroke="#084CAF"/>
<path d="M804.207 271.247C793.852 257.702 768.418 616.668 411.381 658.095C145.436 688.952 79.6081 869.937 70.5608 993.727" stroke="#084CAF"/>
<path d="M810.641 256.967C800.286 243.422 774.852 602.388 417.814 643.815C151.87 674.672 86.0417 855.657 76.9944 979.447" stroke="#084CAF"/>
</svg>