<svg width="17" height="16" viewBox="0 0 17 16" fill="none" xmlns="http://www.w3.org/2000/svg">
<g clip-path="url(#clip0_315_1134)">
<path d="M4.35782 2.49065C4.3576 2.93265 4.1805 3.35646 3.86548 3.66885C3.55047 3.98124 3.12334 4.15661 2.67807 4.15639C2.2328 4.15617 1.80585 3.98037 1.49115 3.66767C1.17645 3.35497 0.999778 2.93099 1 2.48898C1.00022 2.04698 1.17732 1.62317 1.49233 1.31078C1.80735 0.998394 2.23447 0.823021 2.67975 0.823242C3.12502 0.823463 3.55197 0.99926 3.86667 1.31196C4.18137 1.62466 4.35804 2.04865 4.35782 2.49065ZM4.40819 5.39049H1.05037V15.8232H4.40819V5.39049ZM9.71354 5.39049H6.37251V15.8232H9.67996V10.3485C9.67996 7.29872 13.6842 7.0154 13.6842 10.3485V15.8232H17V9.21528C17 4.07389 11.0735 4.26555 9.67996 6.79041L9.71354 5.39049Z" fill="#084CAF"/>
</g>
<defs>
<clipPath id="clip0_315_1134">
<rect width="17" height="15" fill="white" transform="translate(0 0.823242)"/>
</clipPath>
</defs>
</svg>
